<svg width="31" height="31" viewBox="0 0 31 31" fill="none" xmlns="http://www.w3.org/2000/svg">
<g clip-path="url(#clip0_123_250)">
<path d="M18.9375 6.92499C20.1584 7.16319 21.2805 7.76031 22.1601 8.63991C23.0397 9.5195 23.6368 10.6416 23.875 11.8625M18.9375 1.92499C21.4741 2.20678 23.8395 3.34271 25.6453 5.14625C27.4511 6.94979 28.59 9.31375 28.875 11.85M27.625 21.825V25.575C27.6264 25.9231 27.5551 26.2677 27.4156 26.5867C27.2762 26.9056 27.0716 27.192 26.8151 27.4273C26.5586 27.6627 26.2557 27.8418 25.9259 27.9534C25.5962 28.0649 25.2467 28.1063 24.9 28.075C21.0535 27.657 17.3587 26.3427 14.1125 24.2375C11.0923 22.3183 8.53167 19.7577 6.6125 16.7375C4.49997 13.4765 3.1853 9.76373 2.775 5.89999C2.74376 5.55432 2.78484 5.20594 2.89562 4.87702C3.00641 4.5481 3.18446 4.24585 3.41846 3.98951C3.65245 3.73318 3.93725 3.52837 4.25474 3.38814C4.57222 3.24791 4.91542 3.17531 5.2625 3.17499H9.0125C9.61913 3.16902 10.2072 3.38384 10.6672 3.7794C11.1272 4.17497 11.4276 4.7243 11.5125 5.32499C11.6708 6.52507 11.9643 7.7034 12.3875 8.83749C12.5557 9.28489 12.5921 9.77113 12.4924 10.2386C12.3927 10.706 12.1611 11.1351 11.825 11.475L10.2375 13.0625C12.0169 16.1919 14.6081 18.783 17.7375 20.5625L19.325 18.975C19.6649 18.6389 20.0939 18.4073 20.5614 18.3076C21.0289 18.2079 21.5151 18.2443 21.9625 18.4125C23.0966 18.8357 24.2749 19.1292 25.475 19.2875C26.0822 19.3732 26.6368 19.679 27.0332 20.1469C27.4296 20.6147 27.6402 21.212 27.625 21.825Z" stroke="#E4F0FF" stroke-width="2" stroke-linecap="round" stroke-linejoin="round"/>
</g>
<defs>
<clipPath id="clip0_123_250">
<rect width="30" height="30" fill="white" transform="translate(0.125 0.674988)"/>
</clipPath>
</defs>
</svg>
